<svg width="273" height="50" viewBox="0 0 273 50" fill="none" xmlns="http://www.w3.org/2000/svg">
    <g clip-path="url(#clip0_687_2853)">
        <rect width="50" height="50" rx="25" fill="#33CC66"/>
        <path d="M25 49C38.2548 49 49 38.2548 49 25C49 11.7452 38.2548 1 25 1C11.7452 1 1 11.7452 1 25C1 38.2548 11.7452 49 25 49Z" stroke="#252728" stroke-width="2"/>
        <path fill-rule="evenodd" clip-rule="evenodd" d="M14.1077 23.8889H20.0154C21.0492 23.8889 22.0092 23.4444 22.7477 22.7778C23.4123 22.1111 23.8554 21.1481 23.8554 20.037V14.1111V13H24.9631H35.8923H37V14.1111V25V26.1111H35.8923H29.9846C28.9508 26.1111 27.9908 26.5556 27.2523 27.2222C26.5877 27.8889 26.1446 28.8519 26.1446 29.963V35.8889V37H25.0369H14.1077H13V35.963V25.0741V23.963V23.8889H14.1077ZM20.0154 26.1852H15.2154V34.8519H23.8554V30.037C23.8554 28.3333 24.52 26.8519 25.6277 25.7407C26.7354 24.6296 28.2862 23.963 29.9108 23.963H34.7108V15.2222H26.1446V20.037C26.1446 21.7407 25.48 23.2222 24.3723 24.3333C23.2646 25.5185 21.7138 26.1852 20.0154 26.1852Z" fill="white"/>
    </g>
    <circle cx="64" cy="25" r="2" fill="#59E970"/>
    <path d="M79.7699 35V14.6364H84.0753V31.4503H92.8054V35H79.7699ZM95.5771 35V19.7273H99.8129V35H95.5771ZM97.7049 17.7585C97.0752 17.7585 96.5349 17.5497 96.0842 17.1321C95.64 16.7079 95.418 16.2008 95.418 15.6108C95.418 15.0275 95.64 14.527 96.0842 14.1094C96.5349 13.6851 97.0752 13.473 97.7049 13.473C98.3346 13.473 98.8716 13.6851 99.3157 14.1094C99.7665 14.527 99.9918 15.0275 99.9918 15.6108C99.9918 16.2008 99.7665 16.7079 99.3157 17.1321C98.8716 17.5497 98.3346 17.7585 97.7049 17.7585ZM117.445 19.7273L112.105 35H107.332L101.993 19.7273H106.467L109.639 30.6548H109.798L112.96 19.7273H117.445ZM126.08 35.2983C124.509 35.2983 123.157 34.9801 122.023 34.3438C120.897 33.7008 120.028 32.7926 119.418 31.6193C118.808 30.4394 118.504 29.044 118.504 27.4332C118.504 25.8622 118.808 24.4834 119.418 23.2969C120.028 22.1103 120.887 21.1856 121.994 20.5227C123.107 19.8598 124.413 19.5284 125.911 19.5284C126.919 19.5284 127.857 19.6908 128.725 20.0156C129.6 20.3338 130.362 20.8144 131.012 21.4574C131.668 22.1004 132.179 22.9091 132.543 23.8835C132.908 24.8513 133.09 25.9848 133.09 27.2841V28.4474H120.194V25.8224H129.103C129.103 25.2126 128.97 24.6723 128.705 24.2017C128.44 23.7311 128.072 23.3632 127.602 23.098C127.138 22.8262 126.597 22.6903 125.981 22.6903C125.338 22.6903 124.768 22.8395 124.271 23.1378C123.78 23.4295 123.396 23.8239 123.117 24.321C122.839 24.8116 122.696 25.3584 122.69 25.9616V28.4574C122.69 29.2131 122.829 29.866 123.107 30.4162C123.392 30.9664 123.793 31.3906 124.31 31.6889C124.827 31.9872 125.441 32.1364 126.15 32.1364C126.621 32.1364 127.051 32.0701 127.442 31.9375C127.834 31.8049 128.168 31.6061 128.447 31.3409C128.725 31.0758 128.937 30.7509 129.083 30.3665L133.001 30.625C132.802 31.5663 132.394 32.3883 131.778 33.0909C131.168 33.7869 130.379 34.3305 129.411 34.7216C128.45 35.1061 127.34 35.2983 126.08 35.2983ZM148.562 24.0824L144.684 24.321C144.618 23.9896 144.475 23.6913 144.256 23.4261C144.038 23.1544 143.749 22.9389 143.391 22.7798C143.04 22.6141 142.619 22.5312 142.129 22.5312C141.472 22.5312 140.919 22.6705 140.468 22.9489C140.017 23.2206 139.792 23.5852 139.792 24.0426C139.792 24.4072 139.938 24.7154 140.229 24.9673C140.521 25.2192 141.022 25.4214 141.731 25.5739L144.495 26.1307C145.98 26.4356 147.087 26.9261 147.816 27.6023C148.545 28.2784 148.91 29.1667 148.91 30.267C148.91 31.268 148.615 32.1463 148.025 32.902C147.442 33.6577 146.639 34.2476 145.619 34.6719C144.604 35.0895 143.434 35.2983 142.109 35.2983C140.087 35.2983 138.476 34.8774 137.276 34.0355C136.083 33.187 135.384 32.0336 135.178 30.5753L139.344 30.3565C139.47 30.973 139.775 31.4437 140.259 31.7685C140.743 32.0866 141.363 32.2457 142.119 32.2457C142.861 32.2457 143.458 32.1032 143.908 31.8182C144.366 31.5265 144.598 31.152 144.604 30.6946C144.598 30.3101 144.435 29.9953 144.117 29.75C143.799 29.4981 143.308 29.3059 142.646 29.1733L140.001 28.6463C138.509 28.348 137.399 27.831 136.67 27.0952C135.947 26.3594 135.586 25.4214 135.586 24.2812C135.586 23.3002 135.851 22.455 136.381 21.7457C136.918 21.0365 137.671 20.4896 138.638 20.1051C139.613 19.7206 140.753 19.5284 142.059 19.5284C143.988 19.5284 145.506 19.9361 146.613 20.7514C147.727 21.5668 148.376 22.6771 148.562 24.0824ZM159.701 19.7273V22.9091H150.503V19.7273H159.701ZM152.591 16.0682H156.827V30.3068C156.827 30.6979 156.887 31.0028 157.006 31.2216C157.125 31.4337 157.291 31.5829 157.503 31.669C157.722 31.7552 157.974 31.7983 158.259 31.7983C158.458 31.7983 158.657 31.7817 158.855 31.7486C159.054 31.7088 159.207 31.679 159.313 31.6591L159.979 34.8111C159.767 34.8774 159.469 34.9536 159.084 35.0398C158.7 35.1326 158.232 35.1889 157.682 35.2088C156.661 35.2486 155.766 35.1127 154.998 34.8011C154.235 34.4896 153.642 34.0057 153.218 33.3494C152.793 32.6932 152.585 31.8646 152.591 30.8636V16.0682ZM162.46 35V19.7273H166.566V22.392H166.725C167.004 21.4441 167.471 20.7282 168.127 20.2443C168.784 19.7538 169.539 19.5085 170.395 19.5085C170.607 19.5085 170.835 19.5218 171.081 19.5483C171.326 19.5748 171.541 19.6113 171.727 19.6577V23.4162C171.528 23.3565 171.253 23.3035 170.902 23.2571C170.55 23.2107 170.229 23.1875 169.937 23.1875C169.314 23.1875 168.757 23.3234 168.267 23.5952C167.783 23.8603 167.398 24.2315 167.113 24.7088C166.835 25.1861 166.696 25.7363 166.696 26.3594V35H162.46ZM180.166 35.2983C178.595 35.2983 177.243 34.9801 176.109 34.3438C174.982 33.7008 174.114 32.7926 173.504 31.6193C172.894 30.4394 172.589 29.044 172.589 27.4332C172.589 25.8622 172.894 24.4834 173.504 23.2969C174.114 22.1103 174.973 21.1856 176.08 20.5227C177.193 19.8598 178.499 19.5284 179.997 19.5284C181.005 19.5284 181.943 19.6908 182.811 20.0156C183.686 20.3338 184.448 20.8144 185.098 21.4574C185.754 22.1004 186.265 22.9091 186.629 23.8835C186.994 24.8513 187.176 25.9848 187.176 27.2841V28.4474H174.28V25.8224H183.189C183.189 25.2126 183.056 24.6723 182.791 24.2017C182.526 23.7311 182.158 23.3632 181.688 23.098C181.223 22.8262 180.683 22.6903 180.067 22.6903C179.424 22.6903 178.854 22.8395 178.357 23.1378C177.866 23.4295 177.482 23.8239 177.203 24.321C176.925 24.8116 176.782 25.3584 176.776 25.9616V28.4574C176.776 29.2131 176.915 29.866 177.193 30.4162C177.478 30.9664 177.879 31.3906 178.396 31.6889C178.913 31.9872 179.527 32.1364 180.236 32.1364C180.706 32.1364 181.137 32.0701 181.528 31.9375C181.92 31.8049 182.254 31.6061 182.533 31.3409C182.811 31.0758 183.023 30.7509 183.169 30.3665L187.087 30.625C186.888 31.5663 186.48 32.3883 185.864 33.0909C185.254 33.7869 184.465 34.3305 183.497 34.7216C182.536 35.1061 181.426 35.2983 180.166 35.2983ZM194.295 35.2884C193.321 35.2884 192.453 35.1193 191.69 34.7812C190.928 34.4366 190.325 33.9295 189.881 33.2599C189.443 32.5838 189.224 31.742 189.224 30.7344C189.224 29.8859 189.38 29.1733 189.692 28.5966C190.003 28.0199 190.428 27.5559 190.964 27.2045C191.501 26.8532 192.111 26.5881 192.794 26.4091C193.483 26.2301 194.206 26.1042 194.962 26.0312C195.85 25.9384 196.566 25.8523 197.109 25.7727C197.653 25.6866 198.047 25.5606 198.293 25.3949C198.538 25.2292 198.661 24.9839 198.661 24.6591V24.5994C198.661 23.9697 198.462 23.4825 198.064 23.1378C197.673 22.7931 197.116 22.6207 196.393 22.6207C195.631 22.6207 195.025 22.7898 194.574 23.1278C194.123 23.4593 193.825 23.8769 193.679 24.3807L189.761 24.0625C189.96 23.1345 190.351 22.3324 190.935 21.6562C191.518 20.9735 192.27 20.4498 193.192 20.0852C194.12 19.714 195.194 19.5284 196.413 19.5284C197.262 19.5284 198.074 19.6278 198.849 19.8267C199.632 20.0256 200.324 20.3338 200.928 20.7514C201.537 21.169 202.018 21.706 202.369 22.3622C202.721 23.0118 202.896 23.7907 202.896 24.6989V35H198.879V32.8821H198.76C198.515 33.3594 198.187 33.7803 197.776 34.1449C197.365 34.5028 196.871 34.7846 196.294 34.9901C195.717 35.1889 195.051 35.2884 194.295 35.2884ZM195.509 32.3651C196.132 32.3651 196.682 32.2424 197.159 31.9972C197.636 31.7453 198.011 31.4072 198.283 30.983C198.554 30.5587 198.69 30.0781 198.69 29.5412V27.9205C198.558 28.0066 198.375 28.0862 198.143 28.1591C197.918 28.2254 197.663 28.2884 197.378 28.348C197.093 28.401 196.808 28.4508 196.523 28.4972C196.238 28.5369 195.979 28.5734 195.747 28.6065C195.25 28.6795 194.816 28.7955 194.445 28.9545C194.073 29.1136 193.785 29.3291 193.58 29.6009C193.374 29.866 193.271 30.1974 193.271 30.5952C193.271 31.1719 193.48 31.6127 193.898 31.9176C194.322 32.2159 194.859 32.3651 195.509 32.3651ZM206.183 35V19.7273H210.219V22.4219H210.398C210.717 21.527 211.247 20.821 211.989 20.304C212.732 19.7869 213.62 19.5284 214.654 19.5284C215.701 19.5284 216.593 19.7902 217.329 20.3139C218.065 20.831 218.555 21.5336 218.8 22.4219H218.96C219.271 21.5469 219.835 20.8475 220.65 20.3239C221.472 19.7936 222.443 19.5284 223.563 19.5284C224.988 19.5284 226.145 19.9825 227.033 20.8906C227.928 21.7921 228.376 23.0715 228.376 24.7287V35H224.15V25.5639C224.15 24.7154 223.924 24.0791 223.474 23.6548C223.023 23.2306 222.46 23.0185 221.783 23.0185C221.014 23.0185 220.415 23.2637 219.984 23.7543C219.553 24.2382 219.337 24.8778 219.337 25.6733V35H215.231V25.4744C215.231 24.7254 215.015 24.1288 214.585 23.6847C214.16 23.2405 213.6 23.0185 212.904 23.0185C212.433 23.0185 212.009 23.1378 211.631 23.3764C211.26 23.6084 210.965 23.9366 210.746 24.3608C210.528 24.7784 210.418 25.2689 210.418 25.8324V35H206.183ZM231.722 35V19.7273H235.957V35H231.722ZM233.849 17.7585C233.22 17.7585 232.679 17.5497 232.229 17.1321C231.785 16.7079 231.562 16.2008 231.562 15.6108C231.562 15.0275 231.785 14.527 232.229 14.1094C232.679 13.6851 233.22 13.473 233.849 13.473C234.479 13.473 235.016 13.6851 235.46 14.1094C235.911 14.527 236.136 15.0275 236.136 15.6108C236.136 16.2008 235.911 16.7079 235.46 17.1321C235.016 17.5497 234.479 17.7585 233.849 17.7585ZM243.586 26.1705V35H239.35V19.7273H243.387V22.4219H243.566C243.904 21.5336 244.471 20.831 245.267 20.3139C246.062 19.7902 247.027 19.5284 248.16 19.5284C249.221 19.5284 250.145 19.7604 250.934 20.2244C251.723 20.6884 252.336 21.3513 252.774 22.2131C253.211 23.0682 253.43 24.089 253.43 25.2756V35H249.194V26.0312C249.201 25.0966 248.962 24.3674 248.478 23.8438C247.994 23.3134 247.328 23.0483 246.48 23.0483C245.91 23.0483 245.406 23.1709 244.968 23.4162C244.538 23.6615 244.199 24.0194 243.954 24.4901C243.716 24.9541 243.593 25.5142 243.586 26.1705ZM263.649 41.0455C262.277 41.0455 261.1 40.8565 260.119 40.4787C259.145 40.1075 258.369 39.6004 257.793 38.9574C257.216 38.3144 256.841 37.5919 256.669 36.7898L260.587 36.2628C260.706 36.5677 260.895 36.8527 261.153 37.1179C261.412 37.383 261.753 37.5952 262.178 37.7543C262.608 37.92 263.132 38.0028 263.749 38.0028C264.67 38.0028 265.429 37.7775 266.026 37.3267C266.629 36.8826 266.93 36.1368 266.93 35.0895V32.2955H266.751C266.566 32.7197 266.287 33.1207 265.916 33.4986C265.545 33.8764 265.068 34.1847 264.484 34.4233C263.901 34.6619 263.205 34.7812 262.396 34.7812C261.25 34.7812 260.205 34.5161 259.264 33.9858C258.33 33.4489 257.584 32.6302 257.027 31.5298C256.477 30.4228 256.202 29.0241 256.202 27.3338C256.202 25.6037 256.483 24.1586 257.047 22.9986C257.61 21.8385 258.359 20.9702 259.294 20.3935C260.235 19.8168 261.266 19.5284 262.386 19.5284C263.241 19.5284 263.957 19.6742 264.534 19.9659C265.111 20.2509 265.575 20.6089 265.926 21.0398C266.284 21.464 266.559 21.8816 266.751 22.2926H266.911V19.7273H271.116V35.1491C271.116 36.4484 270.798 37.5355 270.162 38.4105C269.526 39.2855 268.644 39.9418 267.517 40.3793C266.397 40.8234 265.107 41.0455 263.649 41.0455ZM263.739 31.5994C264.421 31.5994 264.998 31.4304 265.469 31.0923C265.946 30.7476 266.311 30.2571 266.562 29.6207C266.821 28.9777 266.95 28.2088 266.95 27.3139C266.95 26.419 266.824 25.6435 266.572 24.9872C266.321 24.3243 265.956 23.8106 265.479 23.446C265.001 23.0814 264.421 22.8991 263.739 22.8991C263.043 22.8991 262.456 23.0881 261.979 23.4659C261.501 23.8371 261.14 24.3542 260.895 25.017C260.65 25.6799 260.527 26.4455 260.527 27.3139C260.527 28.1955 260.65 28.9579 260.895 29.6009C261.147 30.2372 261.508 30.7311 261.979 31.0824C262.456 31.4271 263.043 31.5994 263.739 31.5994Z" fill="white"/>
    <defs>
        <clipPath id="clip0_687_2853">
            <rect width="50" height="50" rx="25" fill="white"/>
        </clipPath>
    </defs>
</svg>
